<?xml version="1.0" standalone="no"?>
<!DOCTYPE svg PUBLIC "-//W3C//DTD SVG 20010904//EN"
 "http://www.w3.org/TR/2001/REC-SVG-20010904/DTD/svg10.dtd">
<svg version="1.0" xmlns="http://www.w3.org/2000/svg"
 width="1024.000000pt" height="1024.000000pt" viewBox="0 0 1024.000000 1024.000000"
 preserveAspectRatio="xMidYMid meet">
<metadata>
Created by potrace 1.11, written by Peter Selinger 2001-2013
</metadata>
<g transform="translate(0.000000,1024.000000) scale(0.100000,-0.100000)"
fill="#000000" stroke="none">
<path d="M7458 8041 c-77 -25 -118 -52 -177 -116 -71 -78 -95 -146 -96 -265 0
-87 3 -101 33 -164 27 -58 57 -94 194 -233 l162 -164 -72 -72 -72 -72 -307
307 c-259 258 -317 311 -365 333 -204 93 -427 16 -525 -183 -36 -72 -38 -81
-38 -171 1 -171 -3 -165 361 -531 l314 -316 -73 -72 -72 -72 -440 441 c-407
407 -446 443 -513 476 -221 110 -479 -1 -553 -236 -32 -103 -22 -207 31 -311
15 -31 160 -183 466 -490 l444 -445 -1278 -1277 -1277 -1278 -1020 1019 c-734
733 -1033 1025 -1065 1042 -215 107 -454 29 -554 -181 -29 -60 -31 -73 -31
-175 0 -186 -107 -64 1214 -1388 636 -637 1177 -1174 1203 -1193 74 -55 147
-77 263 -78 188 -2 25 -148 1672 1498 l1443 1441 447 -446 c482 -480 490 -486
616 -510 262 -48 506 196 458 457 -24 128 -29 134 -510 617 l-446 447 73 72
72 73 307 -307 c329 -327 352 -345 470 -368 109 -22 246 17 331 94 124 112
163 288 102 451 -21 56 -45 83 -336 375 l-314 315 72 72 72 72 166 -163 c178
-175 223 -206 334 -227 68 -12 164 0 233 31 49 21 136 99 168 150 59 94 74
236 37 343 -28 79 -68 130 -231 292 l-141 139 164 166 c178 181 209 226 229
343 28 167 -64 342 -221 419 -62 31 -73 33 -172 33 -98 0 -110 -2 -173 -32
-57 -27 -95 -59 -233 -194 l-164 -162 -164 161 c-137 135 -174 167 -230 193
-87 41 -202 49 -288 20z"/>
</g>
</svg>
